<svg width="20" height="21" viewBox="0 0 20 21" fill="none" xmlns="http://www.w3.org/2000/svg">
<path fill-rule="evenodd" clip-rule="evenodd" d="M17.5001 3.86823C17.5001 3.70246 17.4342 3.54349 17.317 3.42628C17.1998 3.30907 17.0408 3.24323 16.8751 3.24323H9.37506C9.2093 3.24323 9.05033 3.30907 8.93312 3.42628C8.81591 3.54349 8.75006 3.70246 8.75006 3.86823C8.75006 4.03399 8.81591 4.19296 8.93312 4.31017C9.05033 4.42738 9.2093 4.49323 9.37506 4.49323H15.3663L2.68256 17.1757C2.62445 17.2338 2.57835 17.3028 2.5469 17.3787C2.51545 17.4547 2.49927 17.536 2.49927 17.6182C2.49927 17.7004 2.51545 17.7818 2.5469 17.8577C2.57835 17.9336 2.62445 18.0026 2.68256 18.0607C2.74067 18.1188 2.80965 18.1649 2.88558 18.1964C2.9615 18.2278 3.04288 18.244 3.12506 18.244C3.20724 18.244 3.28861 18.2278 3.36454 18.1964C3.44046 18.1649 3.50945 18.1188 3.56756 18.0607L16.2501 5.37698V11.3682C16.2501 11.534 16.3159 11.693 16.4331 11.8102C16.5503 11.9274 16.7093 11.9932 16.8751 11.9932C17.0408 11.9932 17.1998 11.9274 17.317 11.8102C17.4342 11.693 17.5001 11.534 17.5001 11.3682V3.86823Z" fill="#0A142F"/>
</svg>
